<svg width="800" height="800" viewBox="0 0 800 800" fill="none" xmlns="http://www.w3.org/2000/svg">
<g clip-path="url(#clip0_2_15)">
<path d="M46.6761 412.199C46.6909 412.341 46.7188 412.479 46.7369 412.62C46.7845 413.012 46.8354 413.403 46.9109 413.791C46.9356 413.911 46.9717 414.029 46.998 414.149C47.0867 414.553 47.1803 414.955 47.3001 415.354C47.3264 415.439 47.3609 415.522 47.3888 415.607C47.5251 416.032 47.6696 416.454 47.8404 416.87C47.865 416.927 47.8946 416.983 47.9192 417.041C48.1031 417.472 48.3002 417.901 48.5235 418.32C48.558 418.385 48.6007 418.446 48.6368 418.51C48.8569 418.911 49.0868 419.307 49.3446 419.693C49.4497 419.85 49.5729 420 49.6845 420.154C49.8849 420.433 50.0786 420.716 50.3003 420.985C50.6468 421.41 51.0147 421.819 51.4055 422.21L131.033 501.836C134.24 505.041 138.442 506.646 142.645 506.646C146.847 506.646 151.051 505.041 154.256 501.836C160.669 495.423 160.669 485.025 154.256 478.611L86.2403 410.595L148.801 348.034C151.88 344.954 153.611 340.778 153.611 336.423C153.611 332.068 151.88 327.892 148.801 324.811L86.2419 262.25L308.849 39.6463L438.988 169.785C445.402 176.195 455.8 176.197 462.212 169.785C468.625 163.372 468.625 152.974 462.212 146.56L320.463 4.80984C317.38 1.73082 313.204 0 308.849 0C304.494 0 300.317 1.73082 297.238 4.80984L51.4071 250.639C51.0196 251.028 50.6534 251.434 50.3085 251.854C50.0212 252.204 49.7617 252.568 49.5088 252.934C49.4596 253.007 49.4021 253.072 49.3528 253.146C49.0654 253.575 48.806 254.017 48.5629 254.467C48.5531 254.485 48.54 254.501 48.5317 254.521C48.2904 254.972 48.0752 255.432 47.8798 255.9C47.87 255.925 47.8568 255.948 47.847 255.971C47.6663 256.411 47.5103 256.858 47.3675 257.308C47.3478 257.368 47.3231 257.427 47.3051 257.488C47.1786 257.905 47.0801 258.329 46.9881 258.754C46.9668 258.854 46.9356 258.953 46.9159 259.053C46.8354 259.459 46.7829 259.866 46.7336 260.275C46.7188 260.4 46.6925 260.521 46.6794 260.646C46.6269 261.18 46.6006 261.715 46.6006 262.25V410.597C46.6006 410.612 46.6022 410.625 46.6022 410.638C46.6006 411.16 46.6252 411.681 46.6761 412.199ZM79.4402 370.95V301.895L113.968 336.423L79.4402 370.95Z" fill="white"/>
<path d="M506.393 360.016C509.6 363.221 513.802 364.825 518.004 364.825C522.207 364.825 526.409 363.221 529.616 360.016L693.032 196.599C725.345 164.283 725.345 111.707 693.032 79.3912C677.397 63.758 656.587 55.1482 634.427 55.1482C612.268 55.1482 591.458 63.758 575.823 79.3912L412.406 242.807C405.994 249.22 405.994 259.618 412.406 266.032L412.843 266.469L110.703 568.612C64.0895 615.226 44.1867 662.4 56.6621 692.538L32.3846 716.817C25.9721 723.23 25.9721 733.628 32.3846 740.042C35.5917 743.248 39.794 744.852 43.9962 744.852C48.1985 744.852 52.4024 743.248 55.6078 740.042L79.9214 715.727C85.2436 717.931 91.8007 719.473 99.7831 719.471C108.074 719.471 117.886 717.817 129.404 713.546C152.893 704.831 178.622 686.911 203.813 661.722L505.956 359.579L506.393 360.016ZM599.049 102.616C608.478 93.1868 621.044 87.9927 634.429 87.9927C647.814 87.9927 660.38 93.1868 669.809 102.616C689.318 122.125 689.318 153.867 669.809 173.376L518.006 325.181L517.6 324.775C517.591 324.764 517.581 324.752 517.571 324.742C517.561 324.732 517.548 324.723 517.538 324.713L494.239 301.412L650.644 145.008C657.056 138.595 657.056 128.197 650.644 121.783C644.229 115.372 633.835 115.372 627.419 121.783L471.014 278.187L447.699 254.872C447.694 254.867 447.689 254.861 447.684 254.856C447.68 254.851 447.673 254.846 447.668 254.841L447.248 254.421L599.049 102.616ZM117.981 682.754C104.595 687.718 93.8271 687.907 89.1732 683.252C80.2827 674.361 87.8333 642.809 122.642 603.775L168.648 649.78C150.965 665.538 133.335 677.058 117.981 682.754ZM192.201 626.885L145.54 580.224L436.07 289.694L447.788 301.412L437.022 312.178C430.609 318.591 430.609 328.989 437.022 335.403C440.229 338.609 444.431 340.213 448.634 340.213C452.836 340.213 457.038 338.609 460.245 335.403L471.011 324.637L482.73 336.355L192.201 626.885Z" fill="white"/>
<path d="M767.615 451.966L625.865 310.216C619.451 303.805 609.056 303.805 602.641 310.216C596.228 316.628 596.228 327.027 602.641 333.441L732.779 463.579L436.002 760.354L293.814 618.166C287.401 611.755 277.003 611.755 270.589 618.166C264.177 624.578 264.177 634.976 270.589 641.39L424.389 795.19C427.596 798.396 431.798 800 436.001 800C440.203 800 444.405 798.396 447.612 795.19L767.614 475.189C774.028 468.776 774.028 458.378 767.615 451.966Z" fill="white"/>
</g>
<defs>
<clipPath id="clip0_2_15">
<rect width="800" height="800" fill="white"/>
</clipPath>
</defs>
</svg>
